<svg width="48" height="49" viewBox="0 0 48 49" fill="none" xmlns="http://www.w3.org/2000/svg">
<path d="M0 24.5C0 11.2452 10.7452 0.5 24 0.5C37.2548 0.5 48 11.2452 48 24.5C48 37.7548 37.2548 48.5 24 48.5C10.7452 48.5 0 37.7548 0 24.5Z" fill="white"/>
<path d="M17 16.5H21L23 21.5L20.5 23C21.571 25.1715 23.3285 26.929 25.5 28L27 25.5L32 27.5V31.5C32 32.0304 31.7893 32.5391 31.4142 32.9142C31.0391 33.2893 30.5304 33.5 30 33.5C26.0993 33.263 22.4202 31.6065 19.6568 28.8432C16.8935 26.0798 15.237 22.4007 15 18.5C15 17.9696 15.2107 17.4609 15.5858 17.0858C15.9609 16.7107 16.4696 16.5 17 16.5" stroke="#49BE6A" stroke-width="1.5" stroke-linecap="round" stroke-linejoin="round"/>
<path d="M24 47C11.5736 47 1.5 36.9264 1.5 24.5H-1.5C-1.5 38.5833 9.91674 50 24 50V47ZM46.5 24.5C46.5 36.9264 36.4264 47 24 47V50C38.0833 50 49.5 38.5833 49.5 24.5H46.5ZM24 2C36.4264 2 46.5 12.0736 46.5 24.5H49.5C49.5 10.4167 38.0833 -1 24 -1V2ZM24 -1C9.91674 -1 -1.5 10.4167 -1.5 24.5H1.5C1.5 12.0736 11.5736 2 24 2V-1Z" fill="#49BE6A"/>
</svg>
